<?xml version="1.0" encoding="UTF-8"?>
<svg width="1200pt" height="1200pt" version="1.1" viewBox="0 0 1200 1200" xmlns="http://www.w3.org/2000/svg">
 <g fill="#682079">
  <path d="m600 1113.1c-8.0391 0-15.961-1.4414-23.641-4.3203l-306.84-117.6c-23.398-8.8789-39.84-30.84-42.121-55.68l-65.398-728.64c-1.6797-18.359 4.5586-36.84 17.039-50.398 12.48-13.559 30.238-21.48 48.719-21.48h744.48c18.48 0 36.238 7.8008 48.719 21.48 12.48 13.68 18.719 32.039 17.039 50.398l-65.398 728.64c-2.2812 24.961-18.84 46.801-42.121 55.68l-306.84 117.48c-7.6758 2.8789-15.598 4.4414-23.637 4.4414zm-372.24-918.12c-2.1602 0-3.6016 1.0781-4.4414 1.9219-0.83984 0.83984-1.8008 2.3984-1.5586 4.5586l65.398 728.64c0.23828 2.2812 1.6797 4.1992 3.8398 5.0391l306.84 117.48c1.4414 0.60156 2.8789 0.60156 4.3203 0l306.84-117.48c2.1602-0.83984 3.6016-2.7617 3.8398-5.0391l65.398-728.64c0.23828-2.1602-0.71875-3.7188-1.5586-4.5586-0.83984-0.83984-2.2812-1.9219-4.4414-1.9219z"/>
  <path d="m521.16 780.96c-7.6797 0-15.359-2.8789-21.238-8.7617l-148.32-148.44c-11.762-11.762-11.762-30.719 0-42.48l153.48-153.48c11.762-11.762 30.719-11.762 42.48 0s11.762 30.719 0 42.48l-132.36 132.24 127.2 127.2c11.762 11.762 11.762 30.719 0 42.48-5.8789 5.8789-13.559 8.7617-21.238 8.7617z"/>
  <path d="m678.84 780.96c-7.6797 0-15.359-2.8789-21.238-8.7617-11.762-11.762-11.762-30.719 0-42.48l127.2-127.2-132.24-132.24c-11.762-11.762-11.762-30.719 0-42.48 11.762-11.762 30.719-11.762 42.48 0l153.36 153.48c11.762 11.762 11.762 30.719 0 42.48l-148.32 148.44c-5.8789 5.8789-13.559 8.7617-21.238 8.7617z"/>
 </g>
</svg>
